<?xml version="1.0" encoding="UTF-8" standalone="no"?>
<!DOCTYPE svg PUBLIC "-//W3C//DTD SVG 1.1//EN"
 "http://www.w3.org/Graphics/SVG/1.1/DTD/svg11.dtd">
<!-- Generated by graphviz version 2.42.4 (0)
 -->
<!-- Title: G Pages: 1 -->
<svg width="3556pt" height="1237pt"
 viewBox="0.00 0.00 3556.34 1236.80" xmlns="http://www.w3.org/2000/svg" xmlns:xlink="http://www.w3.org/1999/xlink">
<g id="graph0" class="graph" transform="scale(1 1) rotate(0) translate(32.4 1204.4)">
<title>G</title>
<polygon fill="#fafbfd" stroke="transparent" points="-32.4,32.4 -32.4,-1204.4 3523.94,-1204.4 3523.94,32.4 -32.4,32.4"/>
<text text-anchor="middle" x="1745.77" y="-1145.6" font-family="Arial" font-size="28.00">Use Case Diagram – Autonomous Intersection Management System</text>
<text text-anchor="middle" x="1745.77" y="-1114.6" font-family="Arial" font-size="28.00">Continuous Collision&#45;Free Flow with Emergency Vehicle Priority</text>
<g id="clust1" class="cluster">
<title>cluster_perception</title>
<path fill="#e8f5e9" stroke="#4caf50" d="M143,-533C143,-533 331.58,-533 331.58,-533 337.58,-533 343.58,-539 343.58,-545 343.58,-545 343.58,-797 343.58,-797 343.58,-803 337.58,-809 331.58,-809 331.58,-809 143,-809 143,-809 137,-809 131,-803 131,-797 131,-797 131,-545 131,-545 131,-539 137,-533 143,-533"/>
<text text-anchor="middle" x="237.29" y="-790.6" font-family="Arial" font-size="18.00">Perception</text>
</g>
<g id="clust2" class="cluster">
<title>cluster_scheduling</title>
<path fill="#fff8e1" stroke="#f9a825" d="M448.58,-999C448.58,-999 1850.26,-999 1850.26,-999 1856.26,-999 1862.26,-1005 1862.26,-1011 1862.26,-1011 1862.26,-1082 1862.26,-1082 1862.26,-1088 1856.26,-1094 1850.26,-1094 1850.26,-1094 448.58,-1094 448.58,-1094 442.58,-1094 436.58,-1088 436.58,-1082 436.58,-1082 436.58,-1011 436.58,-1011 436.58,-1005 442.58,-999 448.58,-999"/>
<text text-anchor="middle" x="1149.42" y="-1075.6" font-family="Arial" font-size="18.00">Scheduling and Reservation</text>
</g>
<g id="clust3" class="cluster">
<title>cluster_flow</title>
<path fill="#e3f2fd" stroke="#1976d2" d="M2313.14,-349C2313.14,-349 3120.42,-349 3120.42,-349 3126.42,-349 3132.42,-355 3132.42,-361 3132.42,-361 3132.42,-451 3132.42,-451 3132.42,-457 3126.42,-463 3120.42,-463 3120.42,-463 2313.14,-463 2313.14,-463 2307.14,-463 2301.14,-457 2301.14,-451 2301.14,-451 2301.14,-361 2301.14,-361 2301.14,-355 2307.14,-349 2313.14,-349"/>
<text text-anchor="middle" x="2716.78" y="-444.6" font-family="Arial" font-size="18.00">Continuous Flow Control</text>
</g>
<g id="clust4" class="cluster">
<title>cluster_safety</title>
<path fill="#fce4ec" stroke="#c2185b" d="M1655.32,-476C1655.32,-476 2196.14,-476 2196.14,-476 2202.14,-476 2208.14,-482 2208.14,-488 2208.14,-488 2208.14,-816 2208.14,-816 2208.14,-822 2202.14,-828 2196.14,-828 2196.14,-828 1655.32,-828 1655.32,-828 1649.32,-828 1643.32,-822 1643.32,-816 1643.32,-816 1643.32,-488 1643.32,-488 1643.32,-482 1649.32,-476 1655.32,-476"/>
<text text-anchor="middle" x="1925.73" y="-809.6" font-family="Arial" font-size="18.00">Safety and Priority</text>
</g>
<!-- NV -->
<g id="node1" class="node">
<title>NV</title>
<path fill="#ffffff" stroke="#263238" stroke-width="1.6" d="M60,-36C60,-36 24,-36 24,-36 18,-36 12,-30 12,-24 12,-24 12,-12 12,-12 12,-6 18,0 24,0 24,0 60,0 60,0 66,0 72,-6 72,-12 72,-12 72,-24 72,-24 72,-30 66,-36 60,-36"/>
<text text-anchor="middle" x="42" y="-21.6" font-family="Arial" font-size="13.00">Normal</text>
<text text-anchor="middle" x="42" y="-7.6" font-family="Arial" font-size="13.00">Vehicle</text>
</g>
<!-- UC1 -->
<g id="node7" class="node">
<title>UC1</title>
<ellipse fill="#f1f8e9" stroke="#2e7d32" stroke-width="1.6" cx="237.29" cy="-748" rx="94.51" ry="25.41"/>
<text text-anchor="middle" x="237.29" y="-751.6" font-family="Arial" font-size="13.00">Detect Approaching</text>
<text text-anchor="middle" x="237.29" y="-737.6" font-family="Arial" font-size="13.00">Vehicle</text>
</g>
<!-- NV&#45;&gt;UC1 -->
<g id="edge1" class="edge">
<title>NV&#45;&gt;UC1</title>
<path fill="none" stroke="#37474f" stroke-width="1.2" d="M72.3,-30.86C91.04,-30.86 111.54,-30.86 111.54,-30.86 111.54,-30.86 111.54,-739.51 111.54,-739.51 111.54,-739.51 139.91,-739.51 139.91,-739.51"/>
<polygon fill="#37474f" stroke="#37474f" stroke-width="1.2" points="139.91,-742.31 147.91,-739.51 139.91,-736.71 139.91,-742.31"/>
</g>
<!-- UC2 -->
<g id="node8" class="node">
<title>UC2</title>
<ellipse fill="#f1f8e9" stroke="#2e7d32" stroke-width="1.6" cx="237.29" cy="-657" rx="98.08" ry="25.41"/>
<text text-anchor="middle" x="237.29" y="-660.6" font-family="Arial" font-size="13.00">Track Position,</text>
<text text-anchor="middle" x="237.29" y="-646.6" font-family="Arial" font-size="13.00">Speed and Direction</text>
</g>
<!-- NV&#45;&gt;UC2 -->
<g id="edge2" class="edge">
<title>NV&#45;&gt;UC2</title>
<path fill="none" stroke="#37474f" stroke-width="1.2" d="M72.09,-25.71C106.03,-25.71 156.54,-25.71 156.54,-25.71 156.54,-25.71 156.54,-634.32 156.54,-634.32"/>
<polygon fill="#37474f" stroke="#37474f" stroke-width="1.2" points="153.74,-634.32 156.54,-642.32 159.34,-634.32 153.74,-634.32"/>
</g>
<!-- UC3 -->
<g id="node9" class="node">
<title>UC3</title>
<ellipse fill="#f1f8e9" stroke="#2e7d32" stroke-width="1.6" cx="237.29" cy="-566" rx="72.66" ry="25.41"/>
<text text-anchor="middle" x="237.29" y="-569.6" font-family="Arial" font-size="13.00">Declare Route</text>
<text text-anchor="middle" x="237.29" y="-555.6" font-family="Arial" font-size="13.00">Intent</text>
</g>
<!-- NV&#45;&gt;UC3 -->
<g id="edge3" class="edge">
<title>NV&#45;&gt;UC3</title>
<path fill="none" stroke="#37474f" stroke-width="1.2" d="M72.23,-20.57C114.07,-20.57 184.54,-20.57 184.54,-20.57 184.54,-20.57 184.54,-540.16 184.54,-540.16"/>
<polygon fill="#37474f" stroke="#37474f" stroke-width="1.2" points="181.74,-540.16 184.54,-548.16 187.34,-540.16 181.74,-540.16"/>
</g>
<!-- UC10 -->
<g id="node16" class="node">
<title>UC10</title>
<ellipse fill="#eaf3ff" stroke="#1565c0" stroke-width="1.6" cx="2717.25" cy="-392" rx="98.08" ry="35.21"/>
<text text-anchor="middle" x="2717.25" y="-402.6" font-family="Arial" font-size="13.00">Maintain Continuous</text>
<text text-anchor="middle" x="2717.25" y="-388.6" font-family="Arial" font-size="13.00">Forward Movement</text>
<text text-anchor="middle" x="2717.25" y="-374.6" font-family="Arial" font-size="13.00">(no complete stops)</text>
</g>
<!-- NV&#45;&gt;UC10 -->
<g id="edge4" class="edge">
<title>NV&#45;&gt;UC10</title>
<path fill="none" stroke="#37474f" stroke-width="1.2" d="M72.05,-10.29C365.99,-10.29 2717.54,-10.29 2717.54,-10.29 2717.54,-10.29 2717.54,-348.43 2717.54,-348.43"/>
<polygon fill="#37474f" stroke="#37474f" stroke-width="1.2" points="2714.74,-348.43 2717.54,-356.43 2720.34,-348.43 2714.74,-348.43"/>
</g>
<!-- UC12 -->
<g id="node17" class="node">
<title>UC12</title>
<ellipse fill="#eaf3ff" stroke="#1565c0" stroke-width="1.6" cx="3036.04" cy="-382" rx="88.28" ry="25.41"/>
<text text-anchor="middle" x="3036.04" y="-385.6" font-family="Arial" font-size="13.00">Cross Intersection</text>
<text text-anchor="middle" x="3036.04" y="-371.6" font-family="Arial" font-size="13.00">Collision&#45;Free</text>
</g>
<!-- NV&#45;&gt;UC12 -->
<g id="edge6" class="edge">
<title>NV&#45;&gt;UC12</title>
<path fill="none" stroke="#37474f" stroke-width="1.2" d="M72.33,-5.14C376.74,-5.14 2870.54,-5.14 2870.54,-5.14 2870.54,-5.14 2870.54,-369.35 2870.54,-369.35 2870.54,-369.35 2951.1,-369.35 2951.1,-369.35"/>
<polygon fill="#37474f" stroke="#37474f" stroke-width="1.2" points="2951.1,-372.15 2959.1,-369.35 2951.1,-366.55 2951.1,-372.15"/>
</g>
<!-- UC11 -->
<g id="node18" class="node">
<title>UC11</title>
<ellipse fill="#fce4ec" stroke="#ad1457" stroke-width="1.6" cx="1755.27" cy="-509" rx="103.89" ry="25.41"/>
<text text-anchor="middle" x="1755.27" y="-512.6" font-family="Arial" font-size="13.00">Enter Critical Zone</text>
<text text-anchor="middle" x="1755.27" y="-498.6" font-family="Arial" font-size="13.00">Only with Reservation</text>
</g>
<!-- NV&#45;&gt;UC11 -->
<g id="edge5" class="edge">
<title>NV&#45;&gt;UC11</title>
<path fill="none" stroke="#37474f" stroke-width="1.2" d="M72.06,-15.43C294.3,-15.43 1673.54,-15.43 1673.54,-15.43 1673.54,-15.43 1673.54,-485.14 1673.54,-485.14"/>
<polygon fill="#37474f" stroke="#37474f" stroke-width="1.2" points="1670.74,-485.14 1673.54,-493.14 1676.34,-485.14 1670.74,-485.14"/>
</g>
<!-- EV -->
<g id="node2" class="node">
<title>EV</title>
<path fill="#ffffff" stroke="#b71c1c" stroke-width="1.6" d="M72,-356C72,-356 12,-356 12,-356 6,-356 0,-350 0,-344 0,-344 0,-332 0,-332 0,-326 6,-320 12,-320 12,-320 72,-320 72,-320 78,-320 84,-326 84,-332 84,-332 84,-344 84,-344 84,-350 78,-356 72,-356"/>
<text text-anchor="middle" x="42" y="-341.6" font-family="Arial" font-size="13.00">Emergency</text>
<text text-anchor="middle" x="42" y="-327.6" font-family="Arial" font-size="13.00">Vehicle</text>
</g>
<!-- EV&#45;&gt;UC1 -->
<g id="edge7" class="edge">
<title>EV&#45;&gt;UC1</title>
<path fill="none" stroke="#37474f" stroke-width="1.2" d="M21.54,-356.25C21.54,-436.8 21.54,-756.49 21.54,-756.49 21.54,-756.49 139.66,-756.49 139.66,-756.49"/>
<polygon fill="#37474f" stroke="#37474f" stroke-width="1.2" points="139.66,-759.29 147.66,-756.49 139.66,-753.69 139.66,-759.29"/>
</g>
<!-- EV&#45;&gt;UC2 -->
<g id="edge8" class="edge">
<title>EV&#45;&gt;UC2</title>
<path fill="none" stroke="#37474f" stroke-width="1.2" d="M84.01,-346C113.44,-346 147.54,-346 147.54,-346 147.54,-346 147.54,-638.29 147.54,-638.29"/>
<polygon fill="#37474f" stroke="#37474f" stroke-width="1.2" points="144.74,-638.29 147.54,-646.29 150.34,-638.29 144.74,-638.29"/>
</g>
<!-- EV&#45;&gt;UC3 -->
<g id="edge9" class="edge">
<title>EV&#45;&gt;UC3</title>
<path fill="none" stroke="#37474f" stroke-width="1.2" d="M84.3,-336C123.09,-336 174.54,-336 174.54,-336 174.54,-336 174.54,-544.98 174.54,-544.98"/>
<polygon fill="#37474f" stroke="#37474f" stroke-width="1.2" points="171.74,-544.98 174.54,-552.98 177.34,-544.98 171.74,-544.98"/>
</g>
<!-- EV&#45;&gt;UC12 -->
<g id="edge12" class="edge">
<title>EV&#45;&gt;UC12</title>
<path fill="none" stroke="#b71c1c" stroke-width="2" d="M78.54,-319.71C78.54,-298.23 78.54,-265.5 78.54,-265.5 78.54,-265.5 3036.54,-265.5 3036.54,-265.5 3036.54,-265.5 3036.54,-348.43 3036.54,-348.43"/>
<polygon fill="#b71c1c" stroke="#b71c1c" stroke-width="2" points="3033.74,-348.43 3036.54,-356.43 3039.34,-348.43 3033.74,-348.43"/>
</g>
<!-- UC15 -->
<g id="node21" class="node">
<title>UC15</title>
<ellipse fill="#ffebee" stroke="#b71c1c" stroke-width="2.1" cx="1755.27" cy="-600" rx="92.76" ry="25.41"/>
<text text-anchor="middle" x="1755.27" y="-603.6" font-family="Arial" font-size="13.00">Handle Emergency</text>
<text text-anchor="middle" x="1755.27" y="-589.6" font-family="Arial" font-size="13.00">Vehicle Priority</text>
</g>
<!-- EV&#45;&gt;UC15 -->
<g id="edge10" class="edge">
<title>EV&#45;&gt;UC15</title>
<path fill="none" stroke="#b71c1c" stroke-width="2" d="M42.54,-356.2C42.54,-416.02 42.54,-602.79 42.54,-602.79 42.54,-602.79 1655.18,-602.79 1655.18,-602.79"/>
<polygon fill="#b71c1c" stroke="#b71c1c" stroke-width="2" points="1655.18,-605.59 1663.18,-602.79 1655.18,-599.99 1655.18,-605.59"/>
</g>
<!-- UC17 -->
<g id="node23" class="node">
<title>UC17</title>
<ellipse fill="#ffebee" stroke="#b71c1c" stroke-width="2.1" cx="2084.18" cy="-509" rx="96.75" ry="25.41"/>
<text text-anchor="middle" x="2084.18" y="-512.6" font-family="Arial" font-size="13.00">Broadcast Intent or</text>
<text text-anchor="middle" x="2084.18" y="-498.6" font-family="Arial" font-size="13.00">Emergency Warning</text>
</g>
<!-- EV&#45;&gt;UC17 -->
<g id="edge11" class="edge">
<title>EV&#45;&gt;UC17</title>
<path fill="none" stroke="#b71c1c" stroke-width="2" d="M63.54,-356.14C63.54,-388.42 63.54,-452.49 63.54,-452.49 63.54,-452.49 2052.54,-452.49 2052.54,-452.49 2052.54,-452.49 2052.54,-476.7 2052.54,-476.7"/>
<polygon fill="#b71c1c" stroke="#b71c1c" stroke-width="2" points="2049.74,-476.7 2052.54,-484.7 2055.34,-476.7 2049.74,-476.7"/>
</g>
<!-- IC -->
<g id="node3" class="node">
<title>IC</title>
<path fill="#ffffff" stroke="#263238" stroke-width="1.6" d="M268.29,-501C268.29,-501 206.29,-501 206.29,-501 200.29,-501 194.29,-495 194.29,-489 194.29,-489 194.29,-477 194.29,-477 194.29,-471 200.29,-465 206.29,-465 206.29,-465 268.29,-465 268.29,-465 274.29,-465 280.29,-471 280.29,-477 280.29,-477 280.29,-489 280.29,-489 280.29,-495 274.29,-501 268.29,-501"/>
<text text-anchor="middle" x="237.29" y="-486.6" font-family="Arial" font-size="13.00">Intersection</text>
<text text-anchor="middle" x="237.29" y="-472.6" font-family="Arial" font-size="13.00">Controller</text>
</g>
<!-- UC4 -->
<g id="node10" class="node">
<title>UC4</title>
<ellipse fill="#fffde7" stroke="#f57f17" stroke-width="1.6" cx="525.19" cy="-1033" rx="80.72" ry="25.41"/>
<text text-anchor="middle" x="525.19" y="-1036.6" font-family="Arial" font-size="13.00">Calculate Arrival</text>
<text text-anchor="middle" x="525.19" y="-1022.6" font-family="Arial" font-size="13.00">Time Window</text>
</g>
<!-- IC&#45;&gt;UC4 -->
<g id="edge13" class="edge">
<title>IC&#45;&gt;UC4</title>
<path fill="none" stroke="#37474f" stroke-width="1.2" d="M280.46,-495.18C366.8,-495.18 552.54,-495.18 552.54,-495.18 552.54,-495.18 552.54,-1000.85 552.54,-1000.85"/>
<polygon fill="#37474f" stroke="#37474f" stroke-width="1.2" points="549.74,-1000.85 552.54,-1008.85 555.34,-1000.85 549.74,-1000.85"/>
</g>
<!-- UC5 -->
<g id="node11" class="node">
<title>UC5</title>
<ellipse fill="#fffde7" stroke="#f57f17" stroke-width="1.6" cx="826.52" cy="-1033" rx="111.95" ry="25.41"/>
<text text-anchor="middle" x="826.52" y="-1036.6" font-family="Arial" font-size="13.00">Map Route to</text>
<text text-anchor="middle" x="826.52" y="-1022.6" font-family="Arial" font-size="13.00">Critical&#45;Zone Sequence</text>
</g>
<!-- IC&#45;&gt;UC5 -->
<g id="edge14" class="edge">
<title>IC&#45;&gt;UC5</title>
<path fill="none" stroke="#37474f" stroke-width="1.2" d="M280.44,-493.24C403.69,-493.24 748.54,-493.24 748.54,-493.24 748.54,-493.24 748.54,-1006.73 748.54,-1006.73"/>
<polygon fill="#37474f" stroke="#37474f" stroke-width="1.2" points="745.74,-1006.73 748.54,-1014.73 751.34,-1006.73 745.74,-1006.73"/>
</g>
<!-- UC6 -->
<g id="node12" class="node">
<title>UC6</title>
<ellipse fill="#fffde7" stroke="#f57f17" stroke-width="1.6" cx="1142.7" cy="-1033" rx="95.42" ry="25.41"/>
<text text-anchor="middle" x="1142.7" y="-1036.6" font-family="Arial" font-size="13.00">Check Critical&#45;Zone</text>
<text text-anchor="middle" x="1142.7" y="-1022.6" font-family="Arial" font-size="13.00">Availability</text>
</g>
<!-- IC&#45;&gt;UC6 -->
<g id="edge15" class="edge">
<title>IC&#45;&gt;UC6</title>
<path fill="none" stroke="#37474f" stroke-width="1.2" d="M280.3,-491.3C464.15,-491.3 1174.54,-491.3 1174.54,-491.3 1174.54,-491.3 1174.54,-1000.67 1174.54,-1000.67"/>
<polygon fill="#37474f" stroke="#37474f" stroke-width="1.2" points="1171.74,-1000.67 1174.54,-1008.67 1177.34,-1000.67 1171.74,-1000.67"/>
</g>
<!-- UC7 -->
<g id="node13" class="node">
<title>UC7</title>
<ellipse fill="#fffde7" stroke="#f57f17" stroke-width="1.6" cx="1444.74" cy="-1032" rx="97.66" ry="25.41"/>
<text text-anchor="middle" x="1444.74" y="-1035.6" font-family="Arial" font-size="13.00">Assign Conflict&#45;Free</text>
<text text-anchor="middle" x="1444.74" y="-1021.6" font-family="Arial" font-size="13.00">Reservation Slots</text>
</g>
<!-- IC&#45;&gt;UC7 -->
<g id="edge16" class="edge">
<title>IC&#45;&gt;UC7</title>
<path fill="none" stroke="#37474f" stroke-width="1.2" d="M280.5,-489.36C490.41,-489.36 1393.54,-489.36 1393.54,-489.36 1393.54,-489.36 1393.54,-1002.06 1393.54,-1002.06"/>
<polygon fill="#37474f" stroke="#37474f" stroke-width="1.2" points="1390.74,-1002.06 1393.54,-1010.06 1396.34,-1002.06 1390.74,-1002.06"/>
</g>
<!-- UC8 -->
<g id="node14" class="node">
<title>UC8</title>
<ellipse fill="#fffde7" stroke="#f57f17" stroke-width="1.6" cx="1755.27" cy="-1032" rx="98.99" ry="25.41"/>
<text text-anchor="middle" x="1755.27" y="-1035.6" font-family="Arial" font-size="13.00">Validate Reservation</text>
<text text-anchor="middle" x="1755.27" y="-1021.6" font-family="Arial" font-size="13.00">Before Entry</text>
</g>
<!-- IC&#45;&gt;UC8 -->
<g id="edge17" class="edge">
<title>IC&#45;&gt;UC8</title>
<path fill="none" stroke="#37474f" stroke-width="1.2" d="M280.43,-487.42C510.17,-487.42 1579.54,-487.42 1579.54,-487.42 1579.54,-487.42 1579.54,-1032 1579.54,-1032 1579.54,-1032 1648.1,-1032 1648.1,-1032"/>
<polygon fill="#37474f" stroke="#37474f" stroke-width="1.2" points="1648.1,-1034.8 1656.1,-1032 1648.1,-1029.2 1648.1,-1034.8"/>
</g>
<!-- UC9 -->
<g id="node15" class="node">
<title>UC9</title>
<ellipse fill="#eaf3ff" stroke="#1565c0" stroke-width="1.6" cx="2409.55" cy="-402" rx="100.32" ry="25.41"/>
<text text-anchor="middle" x="2409.55" y="-405.6" font-family="Arial" font-size="13.00">Adapt Vehicle Speed</text>
<text text-anchor="middle" x="2409.55" y="-391.6" font-family="Arial" font-size="13.00">Continuously</text>
</g>
<!-- IC&#45;&gt;UC9 -->
<g id="edge18" class="edge">
<title>IC&#45;&gt;UC9</title>
<path fill="none" stroke="#37474f" stroke-width="1.2" d="M237.54,-464.89C237.54,-438.74 237.54,-393.51 237.54,-393.51 237.54,-393.51 2306.83,-393.51 2306.83,-393.51"/>
<polygon fill="#37474f" stroke="#37474f" stroke-width="1.2" points="2306.83,-396.31 2314.83,-393.51 2306.83,-390.71 2306.83,-396.31"/>
</g>
<!-- UC13 -->
<g id="node19" class="node">
<title>UC13</title>
<ellipse fill="#fce4ec" stroke="#ad1457" stroke-width="1.6" cx="1755.27" cy="-774" rx="77.89" ry="18"/>
<text text-anchor="middle" x="1755.27" y="-770.6" font-family="Arial" font-size="13.00">Prevent Deadlock</text>
</g>
<!-- IC&#45;&gt;UC13 -->
<g id="edge19" class="edge">
<title>IC&#45;&gt;UC13</title>
<path fill="none" stroke="#37474f" stroke-width="1.2" d="M280.45,-499.06C320.03,-499.06 372.54,-499.06 372.54,-499.06 372.54,-499.06 372.54,-762 372.54,-762 372.54,-762 1689.18,-762 1689.18,-762"/>
<polygon fill="#37474f" stroke="#37474f" stroke-width="1.2" points="1689.18,-764.8 1697.18,-762 1689.18,-759.2 1689.18,-764.8"/>
</g>
<!-- UC14 -->
<g id="node20" class="node">
<title>UC14</title>
<ellipse fill="#fce4ec" stroke="#ad1457" stroke-width="1.6" cx="1755.27" cy="-691" rx="103.48" ry="25.41"/>
<text text-anchor="middle" x="1755.27" y="-694.6" font-family="Arial" font-size="13.00">Schedule Fair Access</text>
<text text-anchor="middle" x="1755.27" y="-680.6" font-family="Arial" font-size="13.00">for All Vehicles</text>
</g>
<!-- IC&#45;&gt;UC14 -->
<g id="edge20" class="edge">
<title>IC&#45;&gt;UC14</title>
<path fill="none" stroke="#37474f" stroke-width="1.2" d="M280.5,-497.12C331.23,-497.12 408.54,-497.12 408.54,-497.12 408.54,-497.12 408.54,-674 408.54,-674 408.54,-674 1670.02,-674 1670.02,-674"/>
<polygon fill="#37474f" stroke="#37474f" stroke-width="1.2" points="1670.02,-676.8 1678.02,-674 1670.02,-671.2 1670.02,-676.8"/>
</g>
<!-- UC16 -->
<g id="node22" class="node">
<title>UC16</title>
<ellipse fill="#ffebee" stroke="#b71c1c" stroke-width="2.1" cx="2084.18" cy="-600" rx="115.93" ry="25.41"/>
<text text-anchor="middle" x="2084.18" y="-603.6" font-family="Arial" font-size="13.00">Dynamically Reschedule</text>
<text text-anchor="middle" x="2084.18" y="-589.6" font-family="Arial" font-size="13.00">Other Vehicles</text>
</g>
<!-- IC&#45;&gt;UC16 -->
<g id="edge21" class="edge">
<title>IC&#45;&gt;UC16</title>
<path fill="none" stroke="#37474f" stroke-width="1.2" d="M280.33,-471.18C548.47,-471.18 1978.54,-471.18 1978.54,-471.18 1978.54,-471.18 1978.54,-581.46 1978.54,-581.46"/>
<polygon fill="#37474f" stroke="#37474f" stroke-width="1.2" points="1975.74,-581.46 1978.54,-589.46 1981.34,-581.46 1975.74,-581.46"/>
</g>
<!-- RT -->
<g id="node4" class="node">
<title>RT</title>
<path fill="#ffffff" stroke="#263238" stroke-width="1.6" d="M859.02,-804C859.02,-804 794.02,-804 794.02,-804 788.02,-804 782.02,-798 782.02,-792 782.02,-792 782.02,-780 782.02,-780 782.02,-774 788.02,-768 794.02,-768 794.02,-768 859.02,-768 859.02,-768 865.02,-768 871.02,-774 871.02,-780 871.02,-780 871.02,-792 871.02,-792 871.02,-798 865.02,-804 859.02,-804"/>
<text text-anchor="middle" x="826.52" y="-789.6" font-family="Arial" font-size="13.00">Reservation</text>
<text text-anchor="middle" x="826.52" y="-775.6" font-family="Arial" font-size="13.00">Table</text>
</g>
<!-- RT&#45;&gt;UC6 -->
<g id="edge22" class="edge">
<title>RT&#45;&gt;UC6</title>
<path fill="none" stroke="#37474f" stroke-width="1.2" d="M871.05,-801C951.21,-801 1111.54,-801 1111.54,-801 1111.54,-801 1111.54,-1000.61 1111.54,-1000.61"/>
<polygon fill="#37474f" stroke="#37474f" stroke-width="1.2" points="1108.74,-1000.61 1111.54,-1008.61 1114.34,-1000.61 1108.74,-1000.61"/>
</g>
<!-- RT&#45;&gt;UC7 -->
<g id="edge23" class="edge">
<title>RT&#45;&gt;UC7</title>
<path fill="none" stroke="#37474f" stroke-width="1.2" d="M871.04,-798C1000.97,-798 1370.54,-798 1370.54,-798 1370.54,-798 1370.54,-1007.17 1370.54,-1007.17"/>
<polygon fill="#37474f" stroke="#37474f" stroke-width="1.2" points="1367.74,-1007.17 1370.54,-1015.17 1373.34,-1007.17 1367.74,-1007.17"/>
</g>
<!-- RT&#45;&gt;UC8 -->
<g id="edge24" class="edge">
<title>RT&#45;&gt;UC8</title>
<path fill="none" stroke="#37474f" stroke-width="1.2" d="M871.22,-795C1044.68,-795 1663.54,-795 1663.54,-795 1663.54,-795 1663.54,-1014.42 1663.54,-1014.42"/>
<polygon fill="#37474f" stroke="#37474f" stroke-width="1.2" points="1660.74,-1014.42 1663.54,-1022.42 1666.34,-1014.42 1660.74,-1014.42"/>
</g>
<!-- CZ -->
<g id="node5" class="node">
<title>CZ</title>
<path fill="#ffffff" stroke="#263238" stroke-width="1.6" d="M1461.74,-362C1461.74,-362 1427.74,-362 1427.74,-362 1421.74,-362 1415.74,-356 1415.74,-350 1415.74,-350 1415.74,-338 1415.74,-338 1415.74,-332 1421.74,-326 1427.74,-326 1427.74,-326 1461.74,-326 1461.74,-326 1467.74,-326 1473.74,-332 1473.74,-338 1473.74,-338 1473.74,-350 1473.74,-350 1473.74,-356 1467.74,-362 1461.74,-362"/>
<text text-anchor="middle" x="1444.74" y="-347.6" font-family="Arial" font-size="13.00">Critical</text>
<text text-anchor="middle" x="1444.74" y="-333.6" font-family="Arial" font-size="13.00">Zones</text>
</g>
<!-- CZ&#45;&gt;UC8 -->
<g id="edge25" class="edge">
<title>CZ&#45;&gt;UC8</title>
<path fill="none" stroke="#37474f" stroke-width="1.2" d="M1430.54,-362.01C1430.54,-439.34 1430.54,-739.27 1430.54,-739.27 1430.54,-739.27 1670.54,-739.27 1670.54,-739.27 1670.54,-739.27 1670.54,-1010.66 1670.54,-1010.66"/>
<polygon fill="#37474f" stroke="#37474f" stroke-width="1.2" points="1667.74,-1010.66 1670.54,-1018.66 1673.34,-1010.66 1667.74,-1010.66"/>
</g>
<!-- CZ&#45;&gt;UC12 -->
<g id="edge27" class="edge">
<title>CZ&#45;&gt;UC12</title>
<path fill="none" stroke="#37474f" stroke-width="1.2" d="M1459.54,-362.05C1459.54,-389.85 1459.54,-439.97 1459.54,-439.97 1459.54,-439.97 3007.54,-439.97 3007.54,-439.97 3007.54,-439.97 3007.54,-414.25 3007.54,-414.25"/>
<polygon fill="#37474f" stroke="#37474f" stroke-width="1.2" points="3010.34,-414.25 3007.54,-406.25 3004.74,-414.25 3010.34,-414.25"/>
</g>
<!-- CZ&#45;&gt;UC11 -->
<g id="edge26" class="edge">
<title>CZ&#45;&gt;UC11</title>
<path fill="none" stroke="#37474f" stroke-width="1.2" d="M1445.54,-362.21C1445.54,-400.42 1445.54,-485.48 1445.54,-485.48 1445.54,-485.48 1707.41,-485.48 1707.41,-485.48"/>
<polygon fill="#37474f" stroke="#37474f" stroke-width="1.2" points="1707.41,-488.28 1715.41,-485.48 1707.41,-482.68 1707.41,-488.28"/>
</g>
<!-- OV -->
<g id="node6" class="node">
<title>OV</title>
<path fill="#ffffff" stroke="#263238" stroke-width="1.6" d="M1803.27,-362C1803.27,-362 1707.27,-362 1707.27,-362 1701.27,-362 1695.27,-356 1695.27,-350 1695.27,-350 1695.27,-338 1695.27,-338 1695.27,-332 1701.27,-326 1707.27,-326 1707.27,-326 1803.27,-326 1803.27,-326 1809.27,-326 1815.27,-332 1815.27,-338 1815.27,-338 1815.27,-350 1815.27,-350 1815.27,-356 1809.27,-362 1803.27,-362"/>
<text text-anchor="middle" x="1755.27" y="-347.6" font-family="Arial" font-size="13.00">Other Vehicles</text>
<text text-anchor="middle" x="1755.27" y="-333.6" font-family="Arial" font-size="13.00">(V2V Awareness)</text>
</g>
<!-- OV&#45;&gt;UC17 -->
<g id="edge28" class="edge">
<title>OV&#45;&gt;UC17</title>
<path fill="none" stroke="#37474f" stroke-width="1.2" d="M1815.33,-341.27C1918.06,-341.27 2116.54,-341.27 2116.54,-341.27 2116.54,-341.27 2116.54,-476.97 2116.54,-476.97"/>
<polygon fill="#37474f" stroke="#37474f" stroke-width="1.2" points="2113.74,-476.97 2116.54,-484.97 2119.34,-476.97 2113.74,-476.97"/>
</g>
<!-- UC3&#45;&gt;UC4 -->
<g id="edge29" class="edge">
<title>UC3&#45;&gt;UC4</title>
<path fill="none" stroke="#37474f" stroke-width="1.2" stroke-dasharray="5,2" d="M291.74,-583C368.3,-583 498.54,-583 498.54,-583 498.54,-583 498.54,-1000.81 498.54,-1000.81"/>
<polygon fill="#37474f" stroke="#37474f" stroke-width="1.2" points="495.74,-1000.81 498.54,-1008.81 501.34,-1000.81 495.74,-1000.81"/>
<text text-anchor="middle" x="390.08" y="-1063" font-family="Arial" font-size="10.00">&lt;&lt;include&gt;&gt;</text>
</g>
<!-- UC4&#45;&gt;UC5 -->
<g id="edge30" class="edge">
<title>UC4&#45;&gt;UC5</title>
<path fill="none" stroke="#37474f" stroke-width="1.2" stroke-dasharray="5,2" d="M605.94,-1033C605.94,-1033 706.67,-1033 706.67,-1033"/>
<polygon fill="#37474f" stroke="#37474f" stroke-width="1.2" points="706.67,-1035.8 714.67,-1033 706.67,-1030.2 706.67,-1035.8"/>
<text text-anchor="middle" x="660.3" y="-1050" font-family="Arial" font-size="10.00">&lt;&lt;include&gt;&gt;</text>
</g>
<!-- UC5&#45;&gt;UC6 -->
<g id="edge31" class="edge">
<title>UC5&#45;&gt;UC6</title>
<path fill="none" stroke="#37474f" stroke-width="1.2" stroke-dasharray="5,2" d="M938.44,-1033C938.44,-1033 1039.17,-1033 1039.17,-1033"/>
<polygon fill="#37474f" stroke="#37474f" stroke-width="1.2" points="1039.17,-1035.8 1047.17,-1033 1039.17,-1030.2 1039.17,-1035.8"/>
<text text-anchor="middle" x="992.74" y="-1050" font-family="Arial" font-size="10.00">&lt;&lt;include&gt;&gt;</text>
</g>
<!-- UC6&#45;&gt;UC7 -->
<g id="edge32" class="edge">
<title>UC6&#45;&gt;UC7</title>
<path fill="none" stroke="#37474f" stroke-width="1.2" stroke-dasharray="5,2" d="M1238.27,-1032.5C1238.27,-1032.5 1338.94,-1032.5 1338.94,-1032.5"/>
<polygon fill="#37474f" stroke="#37474f" stroke-width="1.2" points="1338.94,-1035.3 1346.94,-1032.5 1338.94,-1029.7 1338.94,-1035.3"/>
<text text-anchor="middle" x="1292.66" y="-1050" font-family="Arial" font-size="10.00">&lt;&lt;include&gt;&gt;</text>
</g>
<!-- UC7&#45;&gt;UC8 -->
<g id="edge33" class="edge">
<title>UC7&#45;&gt;UC8</title>
<path fill="none" stroke="#37474f" stroke-width="1.2" stroke-dasharray="5,2" d="M1529.59,-1044.73C1529.59,-1044.73 1661.44,-1044.73 1661.44,-1044.73"/>
<polygon fill="#37474f" stroke="#37474f" stroke-width="1.2" points="1661.44,-1047.53 1669.44,-1044.73 1661.44,-1041.93 1661.44,-1047.53"/>
<text text-anchor="middle" x="1596.82" y="-1050" font-family="Arial" font-size="10.00">&lt;&lt;include&gt;&gt;</text>
</g>
<!-- UC7&#45;&gt;UC13 -->
<g id="edge38" class="edge">
<title>UC7&#45;&gt;UC13</title>
<path fill="none" stroke="#37474f" stroke-width="1.2" stroke-dasharray="5,2" d="M1525.54,-1017.36C1525.54,-963.58 1525.54,-780 1525.54,-780 1525.54,-780 1673.95,-780 1673.95,-780"/>
<polygon fill="#37474f" stroke="#37474f" stroke-width="1.2" points="1673.95,-782.8 1681.95,-780 1673.95,-777.2 1673.95,-782.8"/>
<text text-anchor="middle" x="1596.82" y="-933" font-family="Arial" font-size="10.00">&lt;&lt;include&gt;&gt;</text>
</g>
<!-- UC7&#45;&gt;UC14 -->
<g id="edge39" class="edge">
<title>UC7&#45;&gt;UC14</title>
<path fill="none" stroke="#37474f" stroke-width="1.2" stroke-dasharray="5,2" d="M1508.54,-1012.68C1508.54,-941.71 1508.54,-699.46 1508.54,-699.46 1508.54,-699.46 1649.75,-699.46 1649.75,-699.46"/>
<polygon fill="#37474f" stroke="#37474f" stroke-width="1.2" points="1649.75,-702.26 1657.75,-699.46 1649.75,-696.66 1649.75,-702.26"/>
<text text-anchor="middle" x="1596.82" y="-877" font-family="Arial" font-size="10.00">&lt;&lt;include&gt;&gt;</text>
</g>
<!-- UC8&#45;&gt;UC11 -->
<g id="edge34" class="edge">
<title>UC8&#45;&gt;UC11</title>
<path fill="none" stroke="#37474f" stroke-width="1.2" stroke-dasharray="5,2" d="M1669.16,-1019.27C1640.41,-1019.27 1615.54,-1019.27 1615.54,-1019.27 1615.54,-1019.27 1615.54,-517.73 1615.54,-517.73 1615.54,-517.73 1649.46,-517.73 1649.46,-517.73"/>
<polygon fill="#37474f" stroke="#37474f" stroke-width="1.2" points="1649.46,-520.53 1657.46,-517.73 1649.46,-514.93 1649.46,-520.53"/>
<text text-anchor="middle" x="1596.82" y="-576.5" font-family="Arial" font-size="10.00">&lt;&lt;include&gt;&gt;</text>
</g>
<!-- UC9&#45;&gt;UC10 -->
<g id="edge35" class="edge">
<title>UC9&#45;&gt;UC10</title>
<path fill="none" stroke="#37474f" stroke-width="1.2" stroke-dasharray="5,2" d="M2510.3,-401.95C2510.3,-401.95 2614.8,-401.95 2614.8,-401.95"/>
<polygon fill="#37474f" stroke="#37474f" stroke-width="1.2" points="2614.8,-404.75 2622.8,-401.95 2614.8,-399.15 2614.8,-404.75"/>
<text text-anchor="middle" x="2564.46" y="-402" font-family="Arial" font-size="10.00">&lt;&lt;include&gt;&gt;</text>
</g>
<!-- UC10&#45;&gt;UC12 -->
<g id="edge36" class="edge">
<title>UC10&#45;&gt;UC12</title>
<path fill="none" stroke="#37474f" stroke-width="1.2" stroke-dasharray="5,2" d="M2815.5,-394.75C2815.5,-394.75 2951.36,-394.75 2951.36,-394.75"/>
<polygon fill="#37474f" stroke="#37474f" stroke-width="1.2" points="2951.36,-397.55 2959.36,-394.75 2951.36,-391.95 2951.36,-397.55"/>
<text text-anchor="middle" x="2870.04" y="-400" font-family="Arial" font-size="10.00">&lt;&lt;include&gt;&gt;</text>
</g>
<!-- rule1 -->
<g id="node24" class="node">
<title>rule1</title>
<polygon fill="#e8f5e9" stroke="#2e7d32" stroke-width="1.6" points="3141.54,-211 2924.54,-211 2924.54,-161 3147.54,-161 3147.54,-205 3141.54,-211"/>
<polyline fill="none" stroke="#2e7d32" stroke-width="1.6" points="3141.54,-211 3141.54,-205 "/>
<polyline fill="none" stroke="#2e7d32" stroke-width="1.6" points="3147.54,-205 3141.54,-205 "/>
<text text-anchor="middle" x="3036.04" y="-196.6" font-family="Arial" font-size="13.00">Continuous&#45;flow rule:</text>
<text text-anchor="middle" x="3036.04" y="-182.6" font-family="Arial" font-size="13.00">vehicles may slow down,</text>
<text text-anchor="middle" x="3036.04" y="-168.6" font-family="Arial" font-size="13.00">but shall not make complete stops.</text>
</g>
<!-- UC10&#45;&gt;rule1 -->
<g id="edge45" class="edge">
<title>UC10&#45;&gt;rule1</title>
<path fill="none" stroke="#2e7d32" stroke-width="1.2" stroke-dasharray="1,5" d="M2811.84,-382.05C2871.19,-382.05 2936.54,-382.05 2936.54,-382.05 2936.54,-382.05 2936.54,-264.18 2936.54,-211.23"/>
</g>
<!-- rule2 -->
<g id="node25" class="node">
<title>rule2</title>
<polygon fill="#fff3e0" stroke="#e65100" stroke-width="1.6" points="3485.54,-407 3202.54,-407 3202.54,-357 3491.54,-357 3491.54,-401 3485.54,-407"/>
<polyline fill="none" stroke="#e65100" stroke-width="1.6" points="3485.54,-407 3485.54,-401 "/>
<polyline fill="none" stroke="#e65100" stroke-width="1.6" points="3491.54,-401 3485.54,-401 "/>
<text text-anchor="middle" x="3347.04" y="-392.6" font-family="Arial" font-size="13.00">Safety rule:</text>
<text text-anchor="middle" x="3347.04" y="-378.6" font-family="Arial" font-size="13.00">no two vehicles may occupy the same</text>
<text text-anchor="middle" x="3347.04" y="-364.6" font-family="Arial" font-size="13.00">critical zone during overlapping time intervals.</text>
</g>
<!-- UC12&#45;&gt;rule2 -->
<g id="edge46" class="edge">
<title>UC12&#45;&gt;rule2</title>
<path fill="none" stroke="#e65100" stroke-width="1.2" stroke-dasharray="1,5" d="M3124.74,-382C3148.98,-382 3175.89,-382 3202.38,-382"/>
</g>
<!-- UC11&#45;&gt;UC12 -->
<g id="edge37" class="edge">
<title>UC11&#45;&gt;UC12</title>
<path fill="none" stroke="#37474f" stroke-width="1.2" stroke-dasharray="5,2" d="M1837.54,-493.18C1837.54,-485.27 1837.54,-477.36 1837.54,-477.36 1837.54,-477.36 3065.54,-477.36 3065.54,-477.36 3065.54,-477.36 3065.54,-414.06 3065.54,-414.06"/>
<polygon fill="#37474f" stroke="#37474f" stroke-width="1.2" points="3068.34,-414.06 3065.54,-406.06 3062.74,-414.06 3068.34,-414.06"/>
<text text-anchor="middle" x="2409.55" y="-238" font-family="Arial" font-size="10.00">&lt;&lt;include&gt;&gt;</text>
</g>
<!-- UC15&#45;&gt;UC7 -->
<g id="edge40" class="edge">
<title>UC15&#45;&gt;UC7</title>
<path fill="none" stroke="#b71c1c" stroke-width="1.2" stroke-dasharray="5,2" d="M1677.92,-614.12C1600.1,-614.12 1491.54,-614.12 1491.54,-614.12 1491.54,-614.12 1491.54,-1001.53 1491.54,-1001.53"/>
<polygon fill="#b71c1c" stroke="#b71c1c" stroke-width="1.2" points="1488.74,-1001.53 1491.54,-1009.53 1494.34,-1001.53 1488.74,-1001.53"/>
<text text-anchor="middle" x="1596.82" y="-821" font-family="Arial" font-size="10.00">&lt;&lt;include&gt;&gt;</text>
</g>
<!-- UC15&#45;&gt;UC16 -->
<g id="edge41" class="edge">
<title>UC15&#45;&gt;UC16</title>
<path fill="none" stroke="#b71c1c" stroke-width="1.2" stroke-dasharray="5,2" d="M1842.98,-608.49C1842.98,-608.49 1966.65,-608.49 1966.65,-608.49"/>
<polygon fill="#b71c1c" stroke="#b71c1c" stroke-width="1.2" points="1966.65,-611.29 1974.65,-608.49 1966.65,-605.69 1966.65,-611.29"/>
<text text-anchor="middle" x="1913.71" y="-603" font-family="Arial" font-size="10.00">&lt;&lt;include&gt;&gt;</text>
</g>
<!-- UC15&#45;&gt;UC17 -->
<g id="edge44" class="edge">
<title>UC15&#45;&gt;UC17</title>
<path fill="none" stroke="#b71c1c" stroke-width="1.2" stroke-dasharray="5,2" d="M1842.82,-591.51C1879.83,-591.51 1914.54,-591.51 1914.54,-591.51 1914.54,-591.51 1914.54,-509 1914.54,-509 1914.54,-509 1978.97,-509 1978.97,-509"/>
<polygon fill="#b71c1c" stroke="#b71c1c" stroke-width="1.2" points="1978.97,-511.8 1986.97,-509 1978.97,-506.2 1978.97,-511.8"/>
<text text-anchor="middle" x="1913.71" y="-537" font-family="Arial" font-size="10.00">&lt;&lt;extend&gt;&gt;</text>
</g>
<!-- UC16&#45;&gt;UC9 -->
<g id="edge42" class="edge">
<title>UC16&#45;&gt;UC9</title>
<path fill="none" stroke="#b71c1c" stroke-width="1.2" stroke-dasharray="5,2" d="M2194.54,-591.86C2194.54,-555.58 2194.54,-410.49 2194.54,-410.49 2194.54,-410.49 2306.62,-410.49 2306.62,-410.49"/>
<polygon fill="#b71c1c" stroke="#b71c1c" stroke-width="1.2" points="2306.62,-413.29 2314.62,-410.49 2306.62,-407.69 2306.62,-413.29"/>
<text text-anchor="middle" x="2254.64" y="-522" font-family="Arial" font-size="10.00">&lt;&lt;include&gt;&gt;</text>
</g>
<!-- UC16&#45;&gt;UC10 -->
<g id="edge43" class="edge">
<title>UC16&#45;&gt;UC10</title>
<path fill="none" stroke="#b71c1c" stroke-width="1.2" stroke-dasharray="5,2" d="M2187.54,-588.24C2187.54,-541.22 2187.54,-369.27 2187.54,-369.27 2187.54,-369.27 2633.92,-369.27 2633.92,-369.27"/>
<polygon fill="#b71c1c" stroke="#b71c1c" stroke-width="1.2" points="2633.92,-372.07 2641.92,-369.27 2633.92,-366.47 2633.92,-372.07"/>
<text text-anchor="middle" x="2409.55" y="-329" font-family="Arial" font-size="10.00">&lt;&lt;include&gt;&gt;</text>
</g>
</g>
</svg>
